<?xml version="1.0" standalone="no"?>
<!DOCTYPE svg PUBLIC "-//W3C//DTD SVG 20010904//EN"
 "http://www.w3.org/TR/2001/REC-SVG-20010904/DTD/svg10.dtd">
<svg version="1.0" xmlns="http://www.w3.org/2000/svg"
 width="576.000000pt" height="576.000000pt" viewBox="0 0 576.000000 576.000000"
 preserveAspectRatio="xMidYMid meet">
<metadata>
Created by potrace 1.11, written by Peter Selinger 2001-2013
</metadata>
<g transform="translate(0.000000,576.000000) scale(0.100000,-0.100000)"
fill="#000000" stroke="none">
<path d="M1695 5196 c-243 -60 -370 -182 -411 -393 -25 -131 -30 -123 86 -123
l100 0 0 39 c0 113 83 230 190 267 53 18 101 19 1215 19 1078 0 1163 -1 1203
-17 104 -42 169 -131 179 -248 l6 -61 96 3 96 3 -3 55 c-5 83 -28 167 -68 248
-42 83 -88 129 -175 172 -120 61 -88 60 -1309 59 l-1115 0 -90 -23z"/>
<path d="M4530 4205 l0 -295 -160 0 -160 0 0 284 c0 170 -4 287 -10 291 -13 8
-80 -21 -109 -48 -56 -52 -61 -80 -61 -359 l0 -258 -100 0 -100 0 0 190 c0
189 0 191 -25 215 l-24 25 -911 0 -912 0 -29 -29 -29 -29 0 -186 0 -186 -100
0 -100 0 0 249 c0 159 -4 260 -11 282 -18 53 -58 99 -103 120 -81 37 -76 56
-76 -276 l0 -295 -170 0 -170 0 0 296 0 296 -38 -7 c-49 -9 -102 -51 -129
-105 -22 -43 -23 -54 -23 -302 l0 -258 -74 0 -75 0 -3 189 c-3 185 -4 190 -27
215 -21 22 -33 26 -85 26 -82 0 -147 -31 -212 -102 -28 -32 -61 -81 -74 -114
-24 -58 -24 -66 -28 -411 l-3 -353 325 0 326 0 0 -770 0 -770 -325 0 -325 0 0
-319 c0 -340 5 -395 47 -480 57 -117 156 -184 276 -185 63 -1 71 1 93 27 23
27 24 32 24 203 l0 174 74 0 75 0 3 -247 c3 -235 4 -250 25 -290 29 -54 81
-93 133 -100 l40 -6 0 282 0 281 160 0 160 0 0 -280 c0 -275 0 -280 20 -280
61 0 140 68 159 137 6 22 11 139 11 271 l0 232 100 0 100 0 0 -180 c0 -165 2
-182 19 -199 11 -11 35 -23 53 -26 18 -3 430 -4 916 -3 l884 3 29 33 29 32 0
170 0 170 100 0 100 0 0 -242 c0 -215 3 -248 19 -283 22 -47 64 -89 104 -104
60 -23 57 -36 57 269 l0 280 160 0 160 0 0 -280 0 -280 30 0 c42 0 104 33 130
70 43 60 50 109 50 347 l0 223 69 0 69 0 4 -176 3 -176 34 -30 c33 -30 36 -31
113 -25 130 9 225 72 281 188 42 85 47 140 47 480 l0 319 -325 0 -325 0 0 770
0 770 325 0 325 0 0 333 c0 362 -5 403 -57 499 -57 104 -147 159 -270 166
-142 8 -153 -12 -153 -270 l0 -168 -69 0 -70 0 -3 263 c-3 233 -5 266 -22 297
-39 73 -89 110 -151 110 l-35 0 0 -295z m-1367 -618 c427 -114 746 -453 843
-899 10 -46 18 -145 21 -269 l6 -195 -28 -22 c-27 -22 -32 -22 -431 -22 l-404
0 0 -400 c0 -395 0 -400 -21 -421 -21 -21 -28 -21 -208 -16 -267 7 -393 36
-581 133 -111 57 -197 123 -295 226 -162 169 -259 362 -300 595 -10 54 -15
151 -15 264 0 172 1 178 22 193 19 14 77 16 425 16 l403 0 0 403 c0 355 2 405
16 426 l16 23 217 -4 c193 -4 226 -8 314 -31z"/>
<path d="M3170 3193 l0 -248 -383 -383 -382 -382 -247 0 -247 0 19 -55 c96
-280 336 -519 617 -616 l53 -18 0 257 0 257 372 372 373 373 259 0 259 0 -7
31 c-9 47 -78 188 -126 260 -56 82 -187 213 -269 269 -71 48 -209 114 -258
125 l-33 7 0 -249z"/>
<path d="M110 3056 c0 -85 3 -105 16 -110 9 -3 62 -6 118 -6 89 0 107 -3 130
-21 23 -18 26 -28 26 -79 l0 -59 -112 -3 -113 -3 0 -245 0 -245 109 -3 108 -3
-4 -58 c-2 -32 -12 -70 -21 -85 -17 -25 -22 -26 -106 -26 -48 0 -102 -5 -120
-11 l-31 -11 0 -104 0 -104 400 0 400 0 0 640 0 640 -400 0 -400 0 0 -104z"/>
<path d="M4852 2508 l3 -643 398 -3 397 -2 0 109 c0 90 -3 110 -16 115 -9 3
-64 6 -123 6 -136 0 -151 10 -151 100 l0 59 108 3 107 3 3 243 2 242 -110 0
-110 0 0 64 c0 49 5 69 21 90 20 25 24 26 119 26 54 0 110 4 124 10 26 9 26
11 26 115 l0 105 -400 0 -400 0 2 -642z"/>
</g>
</svg>
